# xmcd
#
# Track frame offsets:
#	150
#	11764
#	23744
#	36609
#	51117
#	62193
#	73376
#	88141
#	105113
#	115762
#	130177
#	146453
#
# Disc length: 2074 seconds
#
# Revision: 0
# Processed by: cddbd v1.5.1PL2 Copyright (c) Steve Scherf et al.
# Submitted via: EasyCDDAExtractor 9.1.2.1
#
DISCID=a808180c
DTITLE=Leona Williams - I Love You Because
DYEAR=1900
DGENRE=Country
TTITLE0=Before You Lose It All
TTITLE1=I Fall Easy
TTITLE2=Blue Darlin'
TTITLE3=It's Tearing This Ole Heart Right Out Of Me
TTITLE4=Yearning
TTITLE5=Dallas
TTITLE6=I Love You Becuase
TTITLE7=I Barely Am Gettin' By
TTITLE8=After I Sing All My Songs
TTITLE9=Three Nickels and a Dime
TTITLE10=From Dallas to Nashville with Love
TTITLE11=Texas Fiddle Song
EXTD=
EXTT0=
EXTT1=
EXTT2=
EXTT3=
EXTT4=
EXTT5=
EXTT6=
EXTT7=
EXTT8=
EXTT9=
EXTT10=
EXTT11=
PLAYORDER=
